<svg width="40" height="42" viewBox="0 0 40 42" fill="none" xmlns="http://www.w3.org/2000/svg">
<g clip-path="url(#clip0)">
<ellipse cx="20" cy="21.0847" rx="20" ry="20.4834" stroke="#E3CDB1"/>
<mask id="mask0" mask-type="alpha" maskUnits="userSpaceOnUse" x="11" y="11" width="18" height="20">
<path fill-rule="evenodd" clip-rule="evenodd" d="M11.1113 30.1812H28.882V11.981H11.1113V30.1812Z" fill="white"/>
</mask>
<g mask="url(#mask0)">
<path fill-rule="evenodd" clip-rule="evenodd" d="M27.9013 11.981H12.0921C11.5504 11.981 11.1113 12.4306 11.1113 12.9854V29.1767C11.1113 29.7314 11.5504 30.1812 12.0921 30.1812H20.6033V23.1331H18.2874V20.3863H20.6033V18.3607C20.6033 16.0099 22.0051 14.7299 24.0527 14.7299C25.0335 14.7299 25.8765 14.8046 26.1221 14.838V17.2947L24.702 17.2954C23.5885 17.2954 23.3728 17.8373 23.3728 18.6326V20.3863H26.0286L25.6828 23.1331H23.3728V30.1812H27.9013C28.4429 30.1812 28.882 29.7314 28.882 29.1767V12.9854C28.882 12.4306 28.4429 11.981 27.9013 11.981Z" fill="#E3CDB1"/>
</g>
</g>
<defs>
<clipPath id="clip0">
<rect width="40" height="40.9668" fill="white" transform="translate(0 0.601318)"/>
</clipPath>
</defs>
</svg>
