<svg width="24" height="22" viewBox="0 0 24 22" fill="none" xmlns="http://www.w3.org/2000/svg">
<g id="Level-Icon" clip-path="url(#clip0)">
<path id="Stroke 2399" fill-rule="evenodd" clip-rule="evenodd" d="M14.7111 3.77261C13.6385 3.40153 12.4683 3.96985 12.0973 5.04346L11.6428 6.35598L10.6871 4.26163C9.28209 1.18417 6.50555 -0.56451 3.42605 0.840532C0.348586 2.24659 -0.150601 5.48876 1.25444 8.56724L6.14667 19.286L15.5794 14.9804L14.521 12.6624L16.0704 6.02861C16.2219 5.04752 15.6505 4.09795 14.7111 3.77261V3.77261Z" stroke="#E3CDB1" stroke-width="1.5" stroke-linecap="round" stroke-linejoin="round"/>
<path id="Stroke 2400" fill-rule="evenodd" clip-rule="evenodd" d="M6.14844 19.286L15.5801 14.9814L16.7554 17.5536L7.32269 21.8582L6.14844 19.286V19.286Z" stroke="#E3CDB1" stroke-width="1.5" stroke-linecap="round" stroke-linejoin="round"/>
<path id="Stroke 2401" d="M22.3194 14.981L23.4937 17.5531L14.061 21.8587L12.8867 19.2855" stroke="#E3CDB1" stroke-width="1.5" stroke-linecap="round" stroke-linejoin="round"/>
<path id="Stroke 2402" d="M18.5355 16.7088L22.3206 14.9815L21.2622 12.6635L22.8117 6.0287C22.9621 5.04761 22.3907 4.09906 21.4524 3.77271C20.3798 3.40162 19.2096 3.97096 18.8385 5.04355L18.384 6.35607L17.4274 4.26274C16.0223 1.18426 13.2458 -0.5634 10.1683 0.841641C9.65693 1.07446 9.21976 1.36014 8.84766 1.68751" stroke="#E3CDB1" stroke-width="1.5" stroke-linecap="round" stroke-linejoin="round"/>
</g>
<defs>
<clipPath id="clip0">
<rect width="24" height="22" fill="white"/>
</clipPath>
</defs>
</svg>
