<svg width="40" height="42" viewBox="0 0 40 42" fill="none" xmlns="http://www.w3.org/2000/svg">
<g clip-path="url(#clip0)">
<ellipse cx="20" cy="21.0847" rx="20" ry="20.4834" stroke="#E3CDB1"/>
<path fill-rule="evenodd" clip-rule="evenodd" d="M30.0801 15.9464C29.4273 16.2446 28.8771 16.2544 28.2932 15.9595C29.0455 15.4979 29.08 15.1735 29.3519 14.3012C28.6477 14.7291 27.8674 15.0404 27.0373 15.208C26.3741 14.4835 25.4269 14.0293 24.3787 14.0293C22.3657 14.0293 20.7344 15.7016 20.7344 17.7616C20.7344 18.0541 20.7665 18.3391 20.8283 18.6126C17.7999 18.4574 15.114 16.9715 13.3168 14.7127C13.0032 15.2638 12.8235 15.9053 12.8235 16.5895C12.8235 17.8849 13.4675 19.0266 14.4444 19.696C13.8469 19.6763 13.2855 19.5087 12.7947 19.2295C12.7939 19.2451 12.7939 19.2598 12.7939 19.2763C12.7939 21.0849 14.0498 22.593 15.7179 22.9363C15.1838 23.085 14.6208 23.108 14.0714 23.0012C14.5358 24.483 15.8815 25.5623 17.4759 25.5927C15.916 26.8445 13.9824 27.366 12.0801 27.1377C13.6937 28.1965 15.6081 28.8141 17.6668 28.8141C24.3699 28.8141 28.035 23.1269 28.035 18.1945C28.035 18.0319 28.0326 17.8717 28.0254 17.7115C28.7367 17.1859 29.5917 16.6955 30.0801 15.9464Z" fill="#E3CDB1"/>
</g>
<defs>
<clipPath id="clip0">
<rect width="40" height="40.9668" fill="white" transform="translate(0 0.601318)"/>
</clipPath>
</defs>
</svg>
