<svg width="40" height="42" viewBox="0 0 40 42" fill="none" xmlns="http://www.w3.org/2000/svg">
<g clip-path="url(#clip0)">
<ellipse cx="20" cy="21.0847" rx="20" ry="20.4834" stroke="#E3CDB1"/>
<mask id="mask0" mask-type="alpha" maskUnits="userSpaceOnUse" x="9" y="12" width="23" height="18">
<path fill-rule="evenodd" clip-rule="evenodd" d="M31.3265 21.0901V29.232H9.45898V21.0901V12.9482H31.3265V21.0901Z" fill="white"/>
</mask>
<g mask="url(#mask0)">
<path fill-rule="evenodd" clip-rule="evenodd" d="M18.6007 23.1462L18.5999 17.7916L23.4635 20.4783L18.6007 23.1462ZM29.2792 16.864C29.2792 16.864 29.1033 15.5507 28.5637 14.9724C27.8792 14.2134 27.112 14.2096 26.7601 14.1652C24.2413 13.9724 20.4629 13.9724 20.4629 13.9724H20.4551C20.4551 13.9724 16.6768 13.9724 14.1578 14.1652C13.806 14.2096 13.039 14.2134 12.3543 14.9724C11.8146 15.5507 11.639 16.864 11.639 16.864C11.639 16.864 11.459 18.4062 11.459 19.9484V21.3942C11.459 22.9364 11.639 24.4786 11.639 24.4786C11.639 24.4786 11.8146 25.7918 12.3543 26.3702C13.039 27.1292 13.9385 27.1052 14.339 27.1847C15.7791 27.3309 20.459 27.3762 20.459 27.3762C20.459 27.3762 24.2413 27.3701 26.7601 27.1774C27.112 27.133 27.8792 27.1292 28.5637 26.3702C29.1033 25.7918 29.2792 24.4786 29.2792 24.4786C29.2792 24.4786 29.459 22.9364 29.459 21.3942V19.9484C29.459 18.4062 29.2792 16.864 29.2792 16.864Z" fill="#E3CDB1"/>
</g>
</g>
<defs>
<clipPath id="clip0">
<rect width="40" height="40.9668" fill="white" transform="translate(0 0.601318)"/>
</clipPath>
</defs>
</svg>
